<svg width="83" height="50" viewBox="0 0 83 50" fill="none" xmlns="http://www.w3.org/2000/svg">
<path d="M45.7682 36.8112C49.3599 33.2195 44.4975 29.0735 36.7372 19.7308C32.0448 15.0384 8.28491 9.1355 4.69318 12.7272C1.10145 16.319 9.03171 25.1152 13.7241 29.8076C29.4674 52.9288 42.1764 40.4029 45.7682 36.8112Z" fill="url(#paint0_linear_62_37)"/>
<path d="M35.2073 33.704C31.9758 29.7851 37.2125 26.1234 45.8311 17.5661C50.9509 13.3442 75.1665 9.74168 78.3981 13.6606C81.6297 17.5795 72.8943 25.5765 67.7744 29.7985C49.8911 51.3073 38.4389 37.6229 35.2073 33.704Z" fill="url(#paint1_linear_62_37)"/>
<defs>
<linearGradient id="paint0_linear_62_37" x1="16.2897" y1="33.7101" x2="33.5031" y2="16.4967" gradientUnits="userSpaceOnUse">
<stop stop-color="#36CAF8"/>
<stop offset="1" stop-color="white"/>
</linearGradient>
<linearGradient id="paint1_linear_62_37" x1="64.8472" y1="33.4376" x2="49.3597" y2="14.6563" gradientUnits="userSpaceOnUse">
<stop stop-color="#36CAF8"/>
<stop offset="1" stop-color="white"/>
</linearGradient>
</defs>
</svg>
