<svg width="428" height="388" viewBox="0 0 428 388" fill="none" xmlns="http://www.w3.org/2000/svg">
<path d="M297.485 335.555C291.792 327.09 283.368 316.437 276.485 308.47C264.587 294.696 114.876 290.848 81.8272 290.517C48.7782 290.187 33.2452 356.945 31.2622 371.156C29.2792 385.367 39.1942 387.846 39.1942 387.846H61.2562H343.418V383.55C343.419 357.722 323.039 336.662 297.485 335.555Z" fill="#25163D"/>
<path d="M276.486 308.469C265.53 295.785 137.711 291.518 91.7433 290.664C84.4723 313.698 119.091 339.18 119.091 339.18C86.8683 344.55 79.1853 362.067 79.1853 362.067C82.4073 354.631 109.425 341.99 133.004 341.231C156.583 340.472 238.563 354.383 238.563 354.383L210.883 366.033C210.883 366.033 270.29 346.947 284.036 342.066C297.737 337.201 319.467 342.033 319.61 342.065C313.064 338.234 305.533 335.903 297.486 335.555C291.792 327.09 283.368 316.437 276.486 308.469Z" fill="#170E28"/>
<path d="M147.049 121.39C144.234 121.387 141.49 122.335 139.212 124.097C140.621 120.056 140.846 115.654 139.856 111.474C138.866 107.293 136.708 103.532 133.667 100.687C130.627 97.842 126.847 96.0477 122.829 95.5414C118.81 95.0351 114.742 95.8406 111.163 97.8515C109.528 93.1715 106.4 89.2536 102.327 86.7838C98.2532 84.314 93.494 83.4499 88.8827 84.3429C84.2713 85.2358 80.1019 87.8287 77.1045 91.6677C74.1072 95.5066 72.473 100.347 72.4883 105.34C72.4962 106.287 72.5623 107.233 72.6863 108.17C70.9724 107.662 69.2021 107.402 67.423 107.397C62.221 107.556 57.2821 109.87 53.6554 113.846C50.0288 117.823 48 123.149 48 128.694C48 134.239 50.0288 139.565 53.6554 143.542C57.2821 147.518 62.221 149.832 67.423 149.991H147.099C148.901 150.059 150.698 149.738 152.381 149.05C154.065 148.362 155.601 147.319 156.898 145.985C158.196 144.65 159.227 143.051 159.932 141.282C160.637 139.514 161 137.612 161 135.691C161 133.769 160.637 131.868 159.932 130.099C159.227 128.33 158.196 126.731 156.898 125.397C155.601 124.062 154.065 123.019 152.381 122.331C150.698 121.643 148.901 121.323 147.099 121.39H147.049Z" fill="url(#paint0_linear_58_10)"/>
<path d="M307.049 50.3899C304.234 50.3869 301.49 51.3347 299.212 53.0971C300.621 49.0558 300.846 44.6538 299.856 40.4736C298.866 36.2933 296.708 32.5319 293.667 29.687C290.627 26.842 286.847 25.0477 282.829 24.5414C278.81 24.0351 274.742 24.8406 271.163 26.8515C269.528 22.1715 266.4 18.2536 262.327 15.7838C258.253 13.314 253.494 12.4499 248.883 13.3429C244.271 14.2358 240.102 16.8287 237.105 20.6677C234.107 24.5066 232.473 29.3466 232.488 34.3402C232.496 35.2872 232.562 36.2326 232.686 37.1704C230.972 36.6618 229.202 36.4017 227.423 36.3969C222.221 36.5562 217.282 38.8698 213.655 42.8464C210.029 46.8231 208 52.1494 208 57.6941C208 63.2388 210.029 68.5651 213.655 72.5417C217.282 76.5183 222.221 78.832 227.423 78.9912H307.099C308.901 79.0585 310.698 78.7385 312.381 78.0501C314.065 77.3618 315.601 76.3192 316.898 74.9846C318.196 73.6501 319.227 72.0508 319.932 70.2822C320.637 68.5136 321 66.6119 321 64.6906C321 62.7692 320.637 60.8676 319.932 59.099C319.227 57.3304 318.196 55.7311 316.898 54.3965C315.601 53.0619 314.065 52.0194 312.381 51.331C310.698 50.6427 308.901 50.3226 307.099 50.3899H307.049Z" fill="url(#paint1_linear_58_10)"/>
<path d="M414.049 128.39C411.234 128.387 408.49 129.335 406.212 131.097C407.621 127.056 407.846 122.654 406.856 118.474C405.866 114.293 403.708 110.532 400.667 107.687C397.627 104.842 393.847 103.048 389.829 102.541C385.81 102.035 381.742 102.841 378.163 104.851C376.528 100.172 373.4 96.2536 369.327 93.7838C365.253 91.314 360.494 90.4499 355.883 91.3429C351.271 92.2358 347.102 94.8287 344.105 98.6677C341.107 102.507 339.473 107.347 339.488 112.34C339.496 113.287 339.562 114.233 339.686 115.17C337.972 114.662 336.202 114.402 334.423 114.397C329.221 114.556 324.282 116.87 320.655 120.846C317.029 124.823 315 130.149 315 135.694C315 141.239 317.029 146.565 320.655 150.542C324.282 154.518 329.221 156.832 334.423 156.991H414.099C415.901 157.059 417.698 156.738 419.381 156.05C421.065 155.362 422.601 154.319 423.898 152.985C425.196 151.65 426.227 150.051 426.932 148.282C427.637 146.514 428 144.612 428 142.691C428 140.769 427.637 138.868 426.932 137.099C426.227 135.33 425.196 133.731 423.898 132.397C422.601 131.062 421.065 130.019 419.381 129.331C417.698 128.643 415.901 128.323 414.099 128.39H414.049Z" fill="url(#paint2_linear_58_10)" fill-opacity="0.7"/>
<path d="M99.0493 257.39C96.234 257.387 93.4901 258.335 91.2121 260.097C92.6214 256.056 92.8459 251.654 91.8558 247.474C90.8657 243.293 88.7077 239.532 85.6673 236.687C82.6269 233.842 78.8474 232.048 74.8289 231.541C70.8104 231.035 66.7424 231.841 63.163 233.851C61.5282 229.172 58.4001 225.254 54.3266 222.784C50.2532 220.314 45.494 219.45 40.8827 220.343C36.2713 221.236 32.1019 223.829 29.1045 227.668C26.1072 231.507 24.473 236.347 24.4883 241.34C24.4962 242.287 24.5623 243.233 24.6863 244.17C22.9724 243.662 21.2021 243.402 19.423 243.397C14.221 243.556 9.28211 245.87 5.65544 249.846C2.02878 253.823 0 259.149 0 264.694C0 270.239 2.02878 275.565 5.65544 279.542C9.28211 283.518 14.221 285.832 19.423 285.991H99.0988C100.901 286.059 102.698 285.738 104.381 285.05C106.065 284.362 107.601 283.319 108.898 281.985C110.196 280.65 111.227 279.051 111.932 277.282C112.637 275.514 113 273.612 113 271.691C113 269.769 112.637 267.868 111.932 266.099C111.227 264.33 110.196 262.731 108.898 261.397C107.601 260.062 106.065 259.019 104.381 258.331C102.698 257.643 100.901 257.323 99.0988 257.39H99.0493Z" fill="url(#paint3_linear_58_10)"/>
<path d="M306.049 245.39C303.234 245.387 300.49 246.335 298.212 248.097C299.621 244.056 299.846 239.654 298.856 235.474C297.866 231.293 295.708 227.532 292.667 224.687C289.627 221.842 285.847 220.048 281.829 219.541C277.81 219.035 273.742 219.841 270.163 221.851C268.528 217.172 265.4 213.254 261.327 210.784C257.253 208.314 252.494 207.45 247.883 208.343C243.271 209.236 239.102 211.829 236.105 215.668C233.107 219.507 231.473 224.347 231.488 229.34C231.496 230.287 231.562 231.233 231.686 232.17C229.972 231.662 228.202 231.402 226.423 231.397C221.221 231.556 216.282 233.87 212.655 237.846C209.029 241.823 207 247.149 207 252.694C207 258.239 209.029 263.565 212.655 267.542C216.282 271.518 221.221 273.832 226.423 273.991H306.099C307.901 274.059 309.698 273.738 311.381 273.05C313.065 272.362 314.601 271.319 315.898 269.985C317.196 268.65 318.227 267.051 318.932 265.282C319.637 263.514 320 261.612 320 259.691C320 257.769 319.637 255.868 318.932 254.099C318.227 252.33 317.196 250.731 315.898 249.397C314.601 248.062 313.065 247.019 311.381 246.331C309.698 245.643 307.901 245.323 306.099 245.39H306.049Z" fill="url(#paint4_linear_58_10)"/>
<path d="M152.113 82.8628C152.113 82.8628 151.685 96.8508 143.01 105.03C134.335 113.21 164.327 142.706 181.305 138.864C198.284 135.022 197.169 117.919 197.169 117.919C197.169 117.919 188.989 112.466 187.378 108.996C185.767 105.526 189.237 90.5298 189.237 90.5298L152.113 82.8628Z" fill="#DA6B6B"/>
<path d="M188.499 94.0248C188.908 91.9548 189.237 90.5298 189.237 90.5298L152.113 82.8628C152.113 82.8628 151.983 86.9938 150.477 92.0768C179.388 105.617 188.499 94.0248 188.499 94.0248Z" fill="#CB5252"/>
<path d="M134.405 72.5287C129.51 64.6047 129.02 56.0317 133.311 53.3807C137.602 50.7297 145.049 55.0047 149.945 62.9287C149.983 62.9897 150.015 63.0517 150.052 63.1127C154.687 70.7297 155.25 78.8807 151.426 81.7857C151.298 81.8837 151.178 81.9917 151.039 82.0777C146.748 84.7277 139.3 80.4527 134.405 72.5287Z" fill="#DA6B6B"/>
<path d="M203.146 48.2637C203.146 48.2637 200.993 59.1357 202.341 67.8747C203.689 76.6137 194.607 90.9027 186.41 95.3597C178.213 99.8167 160.707 91.5237 154.188 85.2557C147.668 78.9877 142.741 62.6057 142.192 55.1497C141.643 47.6937 151.871 17.6377 173.285 20.3927C194.697 23.1467 206.186 29.7327 203.146 48.2637Z" fill="#E9978A"/>
<path d="M200.473 39.3447C200.473 39.3447 182.792 45.4587 180.313 40.0057C180.313 40.0057 154.535 49.0437 157.179 40.8067C157.179 40.8067 151.23 57.3567 149.578 51.5727C149.578 51.5727 145.447 67.2767 149.578 78.8407C149.578 78.8407 140.159 63.7277 139.498 53.9317L136.358 52.6627C136.358 52.6627 130.409 31.7427 132.557 22.3237C134.705 12.9047 146.107 2.82472 149.908 6.62572C149.908 6.62572 184.207 -4.85827 189.164 2.41173C189.164 2.41173 198.355 6.46072 203.627 6.29472C208.899 6.12972 215.179 26.1237 210.882 33.5597C210.882 33.5597 208.205 45.9027 203.144 48.2627L203.41 39.4917C203.412 39.4937 201.299 41.4927 200.473 39.3447Z" fill="#0D1623"/>
<path d="M197.672 47.6347C192.978 47.7997 191.382 52.3447 192.072 52.8747C192.761 53.4047 193.581 49.6957 198.085 50.6237C202.018 51.4337 202.332 53.9327 202.332 53.9327C203.625 51.7847 202.366 47.4697 197.672 47.6347Z" fill="#0D1623"/>
<path d="M177.424 44.6337C177.52 47.0257 167.51 42.9987 163.491 47.7107C161.471 50.0787 159.18 55.5087 163.139 50.8057C167.098 46.1017 180.116 50.2947 180.116 50.2947C182.813 51.0217 182.953 50.1197 182.724 48.0817C182.496 46.0447 177.39 43.7907 177.424 44.6337Z" fill="#0D1623"/>
<path d="M189.832 68.0126L189.116 67.9656L185.712 67.7436L185.488 67.7296C185.166 67.7086 184.889 67.9436 184.869 68.2536L184.717 70.5866C184.697 70.8966 184.941 71.1646 185.263 71.1856L185.487 71.2006C185.487 71.2006 186.698 71.4816 186.827 72.2706C186.827 72.2706 186.771 72.6716 188.144 72.7606C188.413 72.7786 188.627 72.7926 188.801 72.8036L191.406 72.8056C192.78 72.8946 193.012 71.6896 193.012 71.6896L193.236 71.7046C193.558 71.7256 193.835 71.4906 193.855 71.1806L193.653 68.7856C193.653 68.7856 193.464 68.2436 192.63 68.1946L189.832 68.0126Z" fill="#C46574"/>
<path d="M179.036 57.6116C178.96 57.5746 178.88 57.5536 178.802 57.5446C178.506 57.5126 178.207 57.6666 178.071 57.9506C177.675 58.7726 176.245 61.1096 174.914 61.0546C174.001 60.9906 173.072 59.8186 172.248 57.6756C172.104 57.3016 171.682 57.1176 171.313 57.2606C170.941 57.4046 170.754 57.8236 170.898 58.1956C171.992 61.0326 173.336 62.4326 174.858 62.5006C177.374 62.5996 179.178 58.9886 179.376 58.5766C179.548 58.2166 179.396 57.7846 179.036 57.6116Z" fill="#2C2636"/>
<path d="M202.041 58.8177C201.965 58.7807 201.885 58.7597 201.807 58.7507C201.51 58.7177 201.212 58.8727 201.076 59.1567C200.681 59.9787 199.25 62.3156 197.919 62.2606C197.006 62.1966 196.077 61.0246 195.253 58.8816C195.109 58.5076 194.687 58.3237 194.318 58.4667C193.946 58.6107 193.759 59.0297 193.903 59.4017C194.997 62.2387 196.342 63.6386 197.863 63.7066C200.379 63.8056 202.183 60.1947 202.381 59.7827C202.554 59.4227 202.402 58.9907 202.041 58.8177Z" fill="#2C2636"/>
<path d="M192.302 80.5007C186.19 84.0687 180.304 80.5427 180.246 80.5067C180.001 80.3547 179.677 80.4327 179.524 80.6787C179.372 80.9257 179.449 81.2477 179.695 81.3997C179.867 81.5067 182.631 83.1707 186.407 83.1707C188.351 83.1707 190.564 82.7287 192.831 81.4067C193.081 81.2607 193.166 80.9397 193.02 80.6897C192.873 80.4387 192.55 80.3547 192.302 80.5007Z" fill="#2C2636"/>
<path d="M159.323 73.8766C155.542 74.8036 154.726 79.7166 157.499 84.8496C160.273 89.9836 165.587 93.3936 169.368 92.4676C173.149 91.5406 173.966 86.6276 171.192 81.4946C168.418 76.3596 163.104 72.9496 159.323 73.8766Z" fill="#DD7660"/>
<path d="M194.737 84.9046C193.826 86.5896 193.31 88.2486 193.151 89.7526C195.971 86.6146 198.497 82.7526 200.208 78.8816C198.092 80.2626 196.105 82.3726 194.737 84.9046Z" fill="#DD7660"/>
<path d="M146.938 100.157C146.938 100.157 118.843 110.895 113.059 114.696C107.275 118.497 103.805 121.636 103.805 121.636L91.7422 169.061C91.7422 169.061 100.5 183.437 129.087 188.395L127.104 272.67C127.104 272.67 188.244 274.983 200.473 272.67C212.701 270.356 215.345 269.696 215.345 269.696C215.345 269.696 214.312 228.096 217.617 201.326C217.617 201.326 249.716 193.022 253.021 178.481C253.021 178.481 235.505 127.255 231.539 123.62C227.573 119.985 187.378 108.996 187.378 108.996C187.378 108.996 179.329 134.531 146.938 100.157Z" fill="#14ABF7"/>
<path d="M214.519 139.207C218.981 151.572 217.617 201.326 217.617 201.326L221.234 196.722C224.48 163.241 214.519 139.207 214.519 139.207Z" fill="#5D5E72"/>
<path d="M127.105 272.67L131.422 272.822L133.714 139.207L129.129 183.851L127.105 272.67Z" fill="#5D5E72"/>
<path d="M91.7422 169.062C91.7422 169.062 97.2082 178.016 113.565 184.228C121.765 184.956 129.129 183.852 129.129 183.852C126.609 179.72 91.7422 169.062 91.7422 169.062Z" fill="#5D5E72"/>
<path d="M217.617 201.326C217.617 201.326 249.716 193.022 253.021 178.481L217.617 201.326Z" fill="#5D5E72"/>
<path d="M179.818 273.698C179.818 273.698 138.672 229.954 131.236 227.723C123.8 225.492 106.201 224.996 98.0222 231.937C89.8422 238.877 85.6292 248.296 86.6202 264.903C87.6112 281.51 99.8772 333.184 162.963 340.007C234.018 347.691 289.127 317.203 311.931 304.066C334.735 290.929 348.367 276.801 347.624 264.655C346.88 252.51 338.453 233.672 318.128 237.39C297.803 241.108 215.346 269.695 215.346 269.695C215.346 269.695 194.194 273.768 179.818 273.698Z" fill="#47738A"/>
<path d="M206.664 336.95L199.027 334.306L209.437 319.186L190.351 341.115L190.59 341.155C205.121 340.818 218.783 339.021 231.411 336.328L225.052 334.925L206.664 336.95Z" fill="#25133D"/>
<path d="M215.345 269.696C215.345 269.696 194.194 273.768 179.817 273.699L207.702 304.811L209.065 317.328L210.8 311.503L220.136 315.304L210.428 308.47L209.065 303.076L203.116 298.49L295.706 249.021L308.177 239.766C278.914 247.657 215.345 269.696 215.345 269.696Z" fill="#25133D"/>
<path d="M135.355 308.469C135.355 308.469 107.689 285.724 95.5432 285.228C95.5432 285.228 115.124 306.955 102.855 307.989C114.089 323.105 132.662 336.73 162.962 340.006C169.308 340.692 175.521 341.062 181.602 341.179L181.579 341.055L135.355 308.469Z" fill="#25133D"/>
<path d="M220.137 315.303C220.137 315.303 228.73 318.773 232.365 317.947C236 317.121 261.448 307.537 268.884 307.867C276.32 308.198 298.915 307.995 300.259 309.996C301.603 311.998 303.586 317.285 298.133 318.938C298.133 318.938 301.107 319.599 300.281 322.573C299.455 325.547 296.48 325.382 296.48 325.382C296.48 325.382 301.272 329.513 293.34 332.653C293.34 332.653 292.183 336.454 285.574 336.949C285.574 336.949 286.4 339.097 277.146 340.006C267.892 340.915 230.952 343.089 206.045 336.797C206.045 336.797 215.345 335.959 220.137 315.303Z" fill="#E9978A"/>
<path d="M298.132 318.691H294.58C294.443 318.691 294.332 318.802 294.332 318.939C294.332 319.076 294.443 319.187 294.58 319.187H298.132C298.269 319.187 298.38 319.076 298.38 318.939C298.38 318.802 298.269 318.691 298.132 318.691Z" fill="#C11F1B"/>
<path d="M296.48 325.135H293.216C293.079 325.135 292.968 325.246 292.968 325.383C292.968 325.52 293.079 325.631 293.216 325.631H296.48C296.617 325.631 296.728 325.52 296.728 325.383C296.728 325.247 296.617 325.135 296.48 325.135Z" fill="#C11F1B"/>
<path d="M293.377 332.409L289.907 331.893C289.762 331.869 289.646 331.967 289.625 332.101C289.605 332.236 289.698 332.362 289.833 332.383L293.303 332.899C293.316 332.901 293.328 332.902 293.34 332.902C293.461 332.902 293.567 332.814 293.585 332.691C293.606 332.555 293.513 332.429 293.377 332.409Z" fill="#C11F1B"/>
<path d="M285.574 336.703H282.496C282.36 336.703 282.248 336.814 282.248 336.951C282.248 337.088 282.359 337.199 282.496 337.199H285.574C285.711 337.199 285.822 337.088 285.822 336.951C285.822 336.814 285.711 336.703 285.574 336.703Z" fill="#C11F1B"/>
<path d="M216.006 337.198C222.946 331.002 220.137 315.303 220.137 315.303C215.345 335.959 206.046 336.798 206.046 336.798C211.454 338.164 217.429 339.13 223.565 339.798H223.567L216.006 337.198Z" fill="#DA6B6B"/>
<path d="M125.713 309.997C124.369 311.999 122.386 317.286 127.839 318.939C127.839 318.939 124.865 319.6 125.691 322.574C126.517 325.548 129.492 325.383 129.492 325.383C129.492 325.383 124.7 329.514 132.632 332.654C132.632 332.654 133.789 336.455 140.398 336.95C140.398 336.95 139.572 339.098 148.825 340.007C153.799 340.495 166.775 341.348 181.579 341.056C162.781 329.887 135.358 308.471 135.355 308.469C130.272 308.739 126.256 309.187 125.713 309.997Z" fill="#E9978A"/>
<path d="M131.64 318.938C131.64 318.801 131.529 318.69 131.392 318.69H127.84C127.703 318.69 127.592 318.801 127.592 318.938C127.592 319.075 127.703 319.186 127.84 319.186H131.392C131.529 319.186 131.64 319.075 131.64 318.938Z" fill="#C11F1B"/>
<path d="M133.003 325.383C133.003 325.247 132.892 325.135 132.755 325.135H129.492C129.355 325.135 129.244 325.246 129.244 325.383C129.244 325.52 129.355 325.631 129.492 325.631H132.755C132.892 325.631 133.003 325.519 133.003 325.383Z" fill="#C11F1B"/>
<path d="M136.065 331.892L132.595 332.408C132.46 332.428 132.366 332.554 132.386 332.69C132.404 332.813 132.51 332.901 132.631 332.901C132.643 332.901 132.656 332.9 132.668 332.898L136.138 332.382C136.273 332.362 136.367 332.236 136.347 332.1C136.326 331.965 136.198 331.874 136.065 331.892Z" fill="#C11F1B"/>
<path d="M143.475 336.703H140.398C140.261 336.703 140.15 336.814 140.15 336.951C140.15 337.088 140.261 337.199 140.398 337.199H143.475C143.612 337.199 143.723 337.088 143.723 336.951C143.723 336.814 143.612 336.703 143.475 336.703Z" fill="#C11F1B"/>
<path d="M181.579 341.056C162.781 329.887 135.358 308.471 135.355 308.469C135.355 308.469 153.944 330.702 171.824 341.093C174.935 341.127 178.205 341.122 181.579 341.056Z" fill="#DA6B6B"/>
<path d="M97.4021 170.962C97.4021 170.962 97.6501 196.244 99.1371 204.548C99.1371 204.548 97.5261 204.672 95.5431 205.663C95.5431 205.663 94.7991 201.449 90.5861 202.565L88.2311 205.663C88.2311 205.663 86.2481 204.671 85.0091 205.663C83.7701 206.654 83.2741 212.479 85.0091 213.347C85.0091 213.347 85.6291 228.963 87.7361 230.078C89.8431 231.193 91.7431 230.574 91.7431 230.574C91.7431 230.574 97.1551 235.655 99.1381 234.912C101.121 234.168 102.856 232.309 102.856 232.309C102.856 232.309 104.095 234.564 106.698 234.986C109.301 235.407 110.664 234.044 110.664 234.044C110.664 234.044 113.143 237.018 117.108 234.416C121.074 231.813 126.99 226.867 127.89 213.967C128.79 201.067 129.129 183.851 129.129 183.851C129.129 183.851 121.941 169.971 97.4021 170.962Z" fill="#E9978A"/>
<path d="M88.0032 205.568L84.7812 213.252C84.7282 213.378 84.7872 213.523 84.9142 213.576C84.9452 213.59 84.9781 213.595 85.0101 213.595C85.1071 213.595 85.1991 213.538 85.2391 213.443L88.4612 205.759C88.5142 205.633 88.4552 205.488 88.3282 205.435C88.1992 205.38 88.0552 205.442 88.0032 205.568Z" fill="#C11F1B"/>
<path d="M95.7781 205.741C95.8211 205.611 95.7511 205.471 95.6211 205.428C95.4891 205.383 95.3501 205.455 95.3081 205.586C95.1661 206.015 91.8261 216.133 91.4971 218.853C91.1681 221.568 91.4811 230.217 91.4951 230.583C91.5001 230.718 91.6101 230.822 91.7431 230.822C91.7461 230.822 91.7491 230.822 91.7521 230.822C91.8891 230.817 91.9951 230.702 91.9911 230.565C91.9881 230.475 91.6651 221.588 91.9891 218.912C92.3121 216.241 95.7441 205.846 95.7781 205.741Z" fill="#C11F1B"/>
<path d="M101.779 205.416C100.7 204.592 99.2751 204.321 99.1811 204.304C99.0481 204.276 98.9181 204.369 98.8931 204.503C98.8691 204.638 98.9581 204.767 99.0931 204.792C99.1251 204.798 102.334 205.402 102.484 207.498C102.591 209.005 102.337 211.69 102.112 214.06C101.992 215.318 101.88 216.506 101.824 217.464C101.659 220.257 102.57 231.836 102.609 232.328C102.619 232.458 102.728 232.556 102.855 232.556C102.862 232.556 102.869 232.556 102.875 232.555C103.012 232.544 103.114 232.425 103.103 232.289C103.094 232.169 102.156 220.252 102.319 217.493C102.375 216.543 102.487 215.359 102.606 214.106C102.751 212.576 102.899 211.018 102.967 209.681C103.575 209.468 105.947 208.741 107.561 209.717C109.424 210.842 110.163 214.093 110.168 214.093L110.416 234.046C110.418 234.182 110.528 234.291 110.664 234.291H110.667C110.804 234.289 110.913 234.177 110.912 234.04L110.661 214.246C111.21 213.991 113.397 213.09 114.712 214.273C115.868 215.314 116.779 225.265 117.109 231.7C117.116 231.833 117.225 231.935 117.356 231.935C117.36 231.935 117.364 231.935 117.369 231.935C117.506 231.927 117.611 231.811 117.604 231.675C117.519 230.015 116.724 215.417 115.044 213.905C113.58 212.587 111.362 213.388 110.583 213.735C110.349 212.864 109.541 210.331 107.818 209.291C106.143 208.278 103.86 208.862 102.989 209.147C103.011 208.512 103.014 207.934 102.98 207.461C102.936 206.841 102.685 206.335 102.331 205.925C105.281 206.056 117.644 207.307 120.918 219.194C120.949 219.304 121.048 219.376 121.157 219.376C121.179 219.376 121.201 219.373 121.223 219.367C121.355 219.33 121.433 219.194 121.396 219.062C117.738 205.79 103.078 205.423 101.779 205.416Z" fill="#C11F1B"/>
<path d="M97.4021 170.962C97.4021 170.962 97.4141 172.187 97.4491 174.183C97.4491 174.183 113.473 171.045 129.129 183.851C129.129 183.851 121.941 169.971 97.4021 170.962Z" fill="#DA6B6B"/>
<path d="M247.733 181.951L263.266 224.749C263.266 224.749 269.876 222.105 289.87 224.749C309.865 227.393 323.249 229.872 327.38 228.55C331.511 227.228 363.073 220.949 367.286 221.197C371.5 221.445 383.728 222.436 383.728 222.436C383.728 222.436 386.702 222.271 387.363 223.593C387.363 223.593 390.998 223.345 392.568 226.981C394.138 230.616 390.172 242.018 388.106 244.58C386.04 247.141 384.223 246.893 384.223 246.893C384.223 246.893 375.3 253.255 371.003 252.098C371.003 252.098 367.863 253.585 365.467 252.676C365.467 252.676 363.236 253.998 355.676 249.908C348.116 245.818 334.607 244.703 331.509 244.827C328.411 244.951 255.042 254.742 247.73 252.263C240.418 249.784 240.17 249.041 234.097 238.878C228.024 228.716 217.614 201.326 217.614 201.326C217.614 201.326 226.912 185.999 247.733 181.951Z" fill="#E9978A"/>
<path d="M263.247 224.502C262.942 224.526 255.752 225.128 253.154 228.566C253.072 228.674 253.093 228.83 253.202 228.913C253.246 228.947 253.299 228.963 253.351 228.963C253.425 228.963 253.5 228.929 253.549 228.864C256.013 225.605 263.213 225.002 263.286 224.996C263.422 224.985 263.524 224.866 263.513 224.73C263.503 224.594 263.395 224.472 263.247 224.502Z" fill="#C11F1B"/>
<path d="M387.606 223.54C387.577 223.406 387.445 223.321 387.312 223.35C387.178 223.379 387.093 223.511 387.122 223.644C387.125 223.658 387.177 223.901 387.256 224.278C386.451 223.387 385.019 222.111 383.631 222.42C382.383 222.698 381.502 224.196 381.013 226.872C380.974 227.084 380.97 227.306 380.988 227.531C380.398 226.77 379.668 225.933 378.77 225.073C376.69 223.082 375.212 222.337 374.252 222.791C373.57 223.115 373.377 223.961 373.328 224.555C372.825 224.083 371.954 223.448 371.086 223.721C369.997 224.057 369.355 225.623 369.126 228.51C369.05 229.458 369.419 232.146 369.776 234.744C370.037 236.653 370.335 238.816 370.266 239.158C370.062 239.943 363.863 244.931 362.269 245.329C360.97 245.653 355.12 244.187 352.976 243.595C352.838 243.56 352.708 243.636 352.671 243.768C352.635 243.9 352.712 244.036 352.844 244.073C353.134 244.153 359.359 245.867 361.778 245.866C362.025 245.866 362.232 245.849 362.389 245.809C363.986 245.41 370.551 240.265 370.752 239.255C370.833 238.851 370.62 237.252 370.267 234.675C369.931 232.222 369.55 229.443 369.62 228.547C369.879 225.28 370.64 224.376 371.231 224.193C372.157 223.912 373.227 225.143 373.35 225.289C373.504 225.696 375.404 230.739 375.636 231.902C375.894 233.193 376.274 240.701 375.976 241.517C375.729 242.161 369.294 248.594 365.296 252.497C365.198 252.593 365.196 252.75 365.292 252.848C365.34 252.897 365.404 252.923 365.469 252.923C365.531 252.923 365.594 252.9 365.642 252.852C366.712 251.808 376.103 242.623 376.443 241.688C376.796 240.717 376.376 233.071 376.123 231.805C375.882 230.598 374.002 225.611 373.812 225.107C373.783 224.655 373.846 223.533 374.464 223.238C374.885 223.037 375.953 223.063 378.427 225.43C379.702 226.651 380.639 227.838 381.301 228.806C381.705 229.844 382.364 230.756 382.567 231.023C382.215 237.334 381.605 244.286 381.168 244.806C380.443 245.45 371.436 251.924 371.346 251.989C371.235 252.069 371.209 252.224 371.289 252.335C371.337 252.403 371.414 252.439 371.49 252.439C371.54 252.439 371.591 252.423 371.634 252.392C372.007 252.125 380.752 245.837 381.496 245.176C382.258 244.499 382.89 234.123 383.066 230.959C383.067 230.937 383.051 230.92 383.047 230.899C383.044 230.883 383.054 230.867 383.047 230.851C383.021 230.786 382.639 229.886 381.752 228.581C381.542 228.032 381.408 227.46 381.499 226.961C381.948 224.5 382.702 223.135 383.737 222.903C385.355 222.547 387.215 224.974 387.472 225.322C387.999 227.869 388.932 232.558 388.932 233.838C388.932 235.234 385.703 242.922 383.996 246.792C383.941 246.917 383.997 247.063 384.123 247.118C384.155 247.133 384.189 247.139 384.223 247.139C384.318 247.139 384.409 247.084 384.45 246.991C384.653 246.53 389.429 235.686 389.429 233.838C389.43 232.014 387.681 223.885 387.606 223.54Z" fill="#C11F1B"/>
<path d="M357.845 232.924C357.894 232.981 357.964 233.011 358.034 233.011C358.091 233.011 358.148 232.992 358.195 232.952C358.3 232.863 358.312 232.707 358.223 232.602C349.628 222.499 338.618 227.861 338.507 227.915C338.385 227.977 338.336 228.126 338.397 228.248C338.459 228.37 338.608 228.418 338.73 228.358C338.836 228.305 349.5 223.112 357.845 232.924Z" fill="#C11F1B"/>
<path d="M249.539 186.928L247.733 181.951C226.912 186 217.617 201.326 217.617 201.326C217.617 201.326 231.021 187.113 249.539 186.928Z" fill="#DA6B6B"/>
<defs>
<linearGradient id="paint0_linear_58_10" x1="104.5" y1="84" x2="104.5" y2="150" gradientUnits="userSpaceOnUse">
<stop stop-color="#D4D4D4"/>
<stop offset="1" stop-color="#B8FBFF" stop-opacity="0.29"/>
</linearGradient>
<linearGradient id="paint1_linear_58_10" x1="264.5" y1="13" x2="264.5" y2="79" gradientUnits="userSpaceOnUse">
<stop stop-color="#D4D4D4"/>
<stop offset="1" stop-color="#B8FBFF" stop-opacity="0.29"/>
</linearGradient>
<linearGradient id="paint2_linear_58_10" x1="371.5" y1="91" x2="371.5" y2="157" gradientUnits="userSpaceOnUse">
<stop stop-color="#D4D4D4"/>
<stop offset="1" stop-color="#B8FBFF" stop-opacity="0.29"/>
</linearGradient>
<linearGradient id="paint3_linear_58_10" x1="56.5" y1="220" x2="56.5" y2="286" gradientUnits="userSpaceOnUse">
<stop stop-color="#D4D4D4"/>
<stop offset="1" stop-color="#B8FBFF" stop-opacity="0.29"/>
</linearGradient>
<linearGradient id="paint4_linear_58_10" x1="263.5" y1="208" x2="263.5" y2="274" gradientUnits="userSpaceOnUse">
<stop stop-color="#D4D4D4"/>
<stop offset="1" stop-color="#B8FBFF" stop-opacity="0.29"/>
</linearGradient>
</defs>
</svg>
